<svg xmlns="http://www.w3.org/2000/svg" viewBox="0 0 192 192">
  <defs>
    <linearGradient id="bg" x1="24" y1="20" x2="168" y2="178" gradientUnits="userSpaceOnUse">
      <stop stop-color="#fffef9"/>
      <stop offset=".56" stop-color="#fff2d5"/>
      <stop offset="1" stop-color="#f6d9cd"/>
    </linearGradient>
    <linearGradient id="cream" x1="56" y1="45" x2="134" y2="128" gradientUnits="userSpaceOnUse">
      <stop stop-color="#fff9ec"/>
      <stop offset=".72" stop-color="#ffdca3"/>
      <stop offset="1" stop-color="#efad7a"/>
    </linearGradient>
    <filter id="soft" x="-20%" y="-20%" width="140%" height="140%">
      <feDropShadow dx="0" dy="8" stdDeviation="8" flood-color="#b87953" flood-opacity=".18"/>
    </filter>
  </defs>
  <rect x="12" y="12" width="168" height="168" rx="44" fill="url(#bg)"/>
  <circle cx="140" cy="54" r="18" fill="#f7c8bf" opacity=".42"/>
  <circle cx="46" cy="136" r="22" fill="#b9d7b8" opacity=".32"/>
  <g filter="url(#soft)">
    <path d="M55 109c7-28 27-48 55-48s48 20 55 48c-18 15-91 15-110 0Z" fill="url(#cream)"/>
    <path d="M66 117h68l-12 38H78z" fill="#fff8ea" stroke="#85614b" stroke-width="6" stroke-linejoin="round"/>
    <path d="M70 122c21 13 43 13 61 0" fill="none" stroke="#85614b" stroke-width="6" stroke-linecap="round"/>
  </g>
  <path d="M85 76c-6-12-.8-24 11-30 4 13 0 23-11 30Z" fill="#a8cfa5" stroke="#85614b" stroke-width="5" stroke-linejoin="round"/>
  <circle cx="119" cy="74" r="6" fill="#e99696"/>
  <circle cx="78" cy="101" r="4.5" fill="#8eb8cf"/>
</svg>
